<svg version="1.1" id="Layer_1" xmlns="http://www.w3.org/2000/svg" xmlns:xlink="http://www.w3.org/1999/xlink" x="0px" y="0px"
	 width="100%" viewBox="0 0 592 592" enable-background="new 0 0 592 592" xml:space="preserve">
<path fill="#000000" opacity="1.000000" stroke="none" 
	d="
M593.000000,316.531342 
	C591.344421,328.666016 590.515076,340.423981 588.488770,352.060242 
	C579.209961,405.344971 556.003235,451.855896 519.865417,491.788818 
	C477.093384,539.052612 424.531128,570.205078 362.373169,584.817871 
	C338.753326,590.370728 314.720032,592.354309 290.524414,591.251343 
	C242.558319,589.064941 196.551208,579.036255 154.551376,554.743347 
	C102.235695,524.483826 61.254974,483.330261 33.843884,428.946655 
	C18.777592,399.055115 8.262018,367.880341 4.945046,334.606934 
	C2.365896,308.734802 2.948273,282.803680 6.491152,256.934357 
	C11.279275,221.972610 21.431128,188.843140 38.293793,157.782883 
	C58.321785,120.892250 85.506828,90.207222 118.555702,64.546211 
	C152.212616,38.413078 189.716827,20.401884 231.386993,11.275205 
	C248.940979,7.430496 266.699249,5.452383 284.685303,4.451154 
	C323.287018,2.302316 360.823608,7.522860 396.922272,20.801239 
	C500.625061,58.946789 563.314697,133.266251 588.014587,240.322449 
	C590.355286,250.467911 591.182556,260.962555 592.856262,271.647522 
	C593.000000,286.687561 593.000000,301.375122 593.000000,316.531342 
M543.955139,349.732635 
	C550.570251,318.333282 552.024170,286.659882 546.326538,255.100204 
	C537.053589,203.736343 514.257446,158.658112 477.378693,121.831482 
	C418.726715,63.262432 347.064148,40.995934 265.238861,50.553799 
	C237.119736,53.838345 210.235352,61.919308 184.813736,74.505676 
	C140.942902,96.226341 106.126022,127.952309 81.680496,170.373138 
	C63.029942,202.737793 51.883244,237.808350 48.269627,275.094482 
	C45.834953,300.216064 46.571171,325.220520 51.869240,349.996002 
	C59.553673,385.930817 75.041443,418.106323 97.337479,447.307922 
	C119.822441,476.757019 146.385941,501.273651 179.607681,518.010132 
	C210.368149,533.506653 242.942932,542.912781 277.353912,545.781128 
	C300.492981,547.709778 323.613434,547.875183 346.400177,543.086304 
	C408.400665,530.056152 459.364594,498.955597 498.580750,448.957184 
	C521.487061,419.752899 536.739868,387.049438 543.955139,349.732635 
z"/>
<path fill="#000000" opacity="1.000000" stroke="none" 
	d="
M325.356781,373.348083 
	C321.399567,364.987885 323.088104,357.652039 328.513916,351.185394 
	C340.289032,337.151459 352.283142,323.301117 364.203857,309.389557 
	C368.647186,304.204193 373.061737,298.990845 377.636322,293.922852 
	C379.734009,291.598938 379.600098,289.876343 377.539703,287.526642 
	C361.614990,269.365753 345.860840,251.053497 329.369537,233.398315 
	C320.166687,223.545914 320.881256,211.717056 331.398071,201.886047 
	C341.425690,192.512344 352.919037,192.762756 362.090332,202.802261 
	C377.032471,219.158951 391.842407,235.636398 406.709808,252.061356 
	C407.599182,253.043930 408.503510,254.012970 409.955261,255.590790 
	C415.940063,248.960876 421.734863,242.640396 427.419495,236.222290 
	C437.579163,224.751740 447.697998,213.244766 457.783661,201.709122 
	C463.909698,194.702423 471.628937,194.321945 479.732025,196.671005 
	C488.240692,199.137665 494.875793,203.931198 495.933105,213.551773 
	C496.778961,221.248199 493.963745,228.028107 489.085999,233.800034 
	C477.154907,247.918335 465.030365,261.873108 452.990387,275.899475 
	C449.194214,280.321930 445.578613,284.913788 441.573120,289.136688 
	C439.265869,291.569214 439.741760,293.081573 441.735962,295.375305 
	C457.800629,313.852783 473.744995,332.434875 489.721710,350.988770 
	C496.629150,359.010498 497.920471,368.804047 493.144714,376.837372 
	C488.463928,384.710938 476.210175,389.608765 466.975128,387.486633 
	C461.593903,386.250092 457.880554,382.731445 454.504639,378.799957 
	C441.808624,364.014648 429.207031,349.148315 416.570160,334.312286 
	C416.354095,334.058594 416.141571,333.801910 415.922852,333.550568 
	C410.368317,327.166748 410.254028,327.064117 404.766266,333.166901 
	C391.068726,348.399628 377.554443,363.797363 363.835968,379.011047 
	C350.666138,393.616302 334.435791,391.298126 325.356781,373.348083 
z"/>
<path fill="#000000" opacity="1.000000" stroke="none" 
	d="
M100.145828,253.766815 
	C109.464760,250.229446 116.861526,252.830597 122.881180,259.769989 
	C134.338928,272.978424 145.647202,286.316437 157.033600,299.586853 
	C158.430878,301.215363 159.926544,302.759460 161.505585,304.483490 
	C164.185638,303.069275 165.494019,300.704102 167.038162,298.631866 
	C196.876328,258.589233 226.676041,218.517990 256.510925,178.472916 
	C263.416138,169.204559 273.144897,167.193817 282.903839,172.890472 
	C293.621643,179.146835 298.018524,190.622086 293.312256,200.910217 
	C288.703033,210.986206 281.563416,219.447556 275.013794,228.252869 
	C243.611588,270.470215 212.145630,312.640198 180.661789,354.796722 
	C178.975418,357.054749 177.036331,359.156158 175.016937,361.127747 
	C167.326599,368.636078 158.148636,368.471954 151.123993,360.446564 
	C136.316620,343.529724 121.650864,326.488647 106.968735,309.462555 
	C102.402824,304.167725 97.908852,298.807770 93.497543,293.383636 
	C89.847580,288.895660 87.769608,283.638794 86.856430,277.968689 
	C85.180931,267.565155 89.580200,259.475006 100.145828,253.766815 
z"/>
</svg>